<svg width="75" height="71" fill="none" xmlns="http://www.w3.org/2000/svg"><path d="M70.5 47.2H4.7a4.2 4.2 0 0 0-4 4.3V55c0 2.4 1.8 4.3 4 4.3h1v1.1a10 10 0 0 0 9.5 10.1h44.6c5.3 0 9.6-4.5 9.6-10.1v-1.1h1c2.2 0 4-1.9 4-4.3v-3.5a4 4 0 0 0-3.9-4.3Zm-3.9 13.2c0 3.9-3 7-6.7 7H15.2a6.9 6.9 0 0 1-6.7-7v-1.1h58.1v1.1Zm5.1-5.4c0 .7-.6 1.3-1.2 1.3H4.6c-.7 0-1.2-.6-1.2-1.3v-3.5c0-.7.6-1.3 1.2-1.3h65.8c.7 0 1.2.6 1.2 1.3l.1 3.5ZM16.2 38.9l5.4 4.1 5.3-4.1 5.3 4.1 5.3-4.1L43 43l5.3-4.1 5.3 4.1 5.4-4.1 5.3 4.1 6.2-4.7-1.7-2.5-4.5 3.4-5.3-4.1-5.4 4.1-5.3-4.1-5.3 4.1-5.4-4.1-5.3 4.1-5.3-4.1-5.3 4.1-5.4-4.1-5.3 4.1-4.5-3.4-1.7 2.5L11 43l5.3-4.1ZM8.6 32h60.8l.1-1.9v-1.2C68.8 13.2 54.8.5 37.6.5 20.3.5 6.3 13.2 5.6 29v1.2l.1 1.9h3V32Zm29-28.5c15.6 0 28.4 11.3 29 25.5h-58C9.2 14.9 22 3.5 37.6 3.5Z" fill="#83B3D3"/><path d="M37.6 17.8a2 2 0 0 0 2-2 2 2 0 0 0-2-2 2 2 0 0 0-1.9 2c0 1.1.9 2 2 2ZM29.8 12.7a2 2 0 0 0 2-2 2 2 0 0 0-2-2 2 2 0 0 0-1.9 2c0 1.1.9 2 2 2ZM45.3 12.7a2 2 0 0 0 2-2 2 2 0 0 0-2-2 2 2 0 0 0-1.9 2c0 1.1.9 2 2 2Z" fill="#83B3D3"/></svg>